<svg width="1440" height="2425" viewBox="0 0 1440 2425" fill="none" xmlns="http://www.w3.org/2000/svg">
    <path fill-rule="evenodd" clip-rule="evenodd" d="M932 71.4204C932 64.5864 928.408 58.3299 922.487 54.7685L836.386 2.88762C829.98 -0.962539 821.923 -0.962539 815.516 2.88762L729.513 54.7685C723.592 58.3299 720 64.6826 720 71.4204V175.086C720 181.92 723.592 188.176 729.513 191.738L815.516 243.619C818.72 245.544 827.165 249.009 836.386 243.619L922.39 191.738C928.408 188.273 932 181.92 932 175.086V71.4204Z" fill="#424242" fill-opacity="0.03"/>
    <path fill-rule="evenodd" clip-rule="evenodd" d="M1376 71.4204C1376 64.5864 1372.41 58.3299 1366.49 54.7685L1280.39 2.88762C1273.98 -0.962539 1265.92 -0.962539 1259.52 2.88762L1173.51 54.7685C1167.59 58.3299 1164 64.6826 1164 71.4204V175.086C1164 181.92 1167.59 188.176 1173.51 191.738L1259.52 243.619C1262.72 245.544 1271.16 249.009 1280.39 243.619L1366.39 191.738C1372.41 188.273 1376 181.92 1376 175.086V71.4204Z" fill="#424242" fill-opacity="0.03"/>
    <path fill-rule="evenodd" clip-rule="evenodd" d="M44 71.4204C44 64.5864 40.4084 58.3299 34.4872 54.7685L-51.6136 2.88762C-58.0201 -0.962539 -66.0769 -0.962539 -72.4835 2.88762L-158.487 54.7685C-164.408 58.3299 -168 64.6826 -168 71.4204V175.086C-168 181.92 -164.408 188.176 -158.487 191.738L-72.4835 243.619C-69.2802 245.544 -60.8352 249.009 -51.6136 243.619L34.3901 191.738C40.4084 188.273 44 181.92 44 175.086V71.4204Z" fill="#424242" fill-opacity="0.03"/>
    <path fill-rule="evenodd" clip-rule="evenodd" d="M488 71.4204C488 64.5864 484.408 58.3299 478.487 54.7685L392.386 2.88762C385.98 -0.962539 377.923 -0.962539 371.516 2.88762L285.513 54.7685C279.592 58.3299 276 64.6826 276 71.4204V175.086C276 181.92 279.592 188.176 285.513 191.738L371.516 243.619C374.72 245.544 383.165 249.009 392.386 243.619L478.39 191.738C484.408 188.273 488 181.92 488 175.086V71.4204Z" fill="#424242" fill-opacity="0.03"/>
    <path fill-rule="evenodd" clip-rule="evenodd" d="M266 71.4204C266 64.5864 262.408 58.3299 256.487 54.7685L170.386 2.88762C163.98 -0.962539 155.923 -0.962539 149.516 2.88762L63.5128 54.7685C57.5916 58.3299 54 64.6826 54 71.4204V175.086C54 181.92 57.5916 188.176 63.5128 191.738L149.516 243.619C152.72 245.544 161.165 249.009 170.386 243.619L256.39 191.738C262.408 188.273 266 181.92 266 175.086V71.4204Z" fill="#424242" fill-opacity="0.03"/>
    <path fill-rule="evenodd" clip-rule="evenodd" d="M1598 71.4204C1598 64.5864 1594.41 58.3299 1588.49 54.7685L1502.39 2.88762C1495.98 -0.962539 1487.92 -0.962539 1481.52 2.88762L1395.51 54.7685C1389.59 58.3299 1386 64.6826 1386 71.4204V175.086C1386 181.92 1389.59 188.176 1395.51 191.738L1481.52 243.619C1484.72 245.544 1493.16 249.009 1502.39 243.619L1588.39 191.738C1594.41 188.273 1598 181.92 1598 175.086V71.4204Z" fill="#424242" fill-opacity="0.03"/>
    <path fill-rule="evenodd" clip-rule="evenodd" d="M1043 269.42C1043 262.586 1039.41 256.33 1033.49 252.768L947.386 200.888C940.98 197.037 932.923 197.037 926.516 200.888L840.513 252.768C834.592 256.33 831 262.683 831 269.42V373.086C831 379.92 834.592 386.176 840.513 389.738L926.516 441.619C929.72 443.544 938.165 447.009 947.386 441.619L1033.39 389.738C1039.41 386.273 1043 379.92 1043 373.086V269.42Z" fill="#424242" fill-opacity="0.03"/>
    <path fill-rule="evenodd" clip-rule="evenodd" d="M1265 269.42C1265 262.586 1261.41 256.33 1255.49 252.768L1169.39 200.888C1162.98 197.037 1154.92 197.037 1148.52 200.888L1062.51 252.768C1056.59 256.33 1053 262.683 1053 269.42V373.086C1053 379.92 1056.59 386.176 1062.51 389.738L1148.52 441.619C1151.72 443.544 1160.16 447.009 1169.39 441.619L1255.39 389.738C1261.41 386.273 1265 379.92 1265 373.086V269.42Z" fill="#424242" fill-opacity="0.03"/>
    <path fill-rule="evenodd" clip-rule="evenodd" d="M1487 269.42C1487 262.586 1483.41 256.33 1477.49 252.768L1391.39 200.888C1384.98 197.037 1376.92 197.037 1370.52 200.888L1284.51 252.768C1278.59 256.33 1275 262.683 1275 269.42V373.086C1275 379.92 1278.59 386.176 1284.51 389.738L1370.52 441.619C1373.72 443.544 1382.16 447.009 1391.39 441.619L1477.39 389.738C1483.41 386.273 1487 379.92 1487 373.086V269.42Z" fill="#424242" fill-opacity="0.03"/>
    <path fill-rule="evenodd" clip-rule="evenodd" d="M599 269.42C599 262.586 595.408 256.33 589.487 252.768L503.386 200.888C496.98 197.037 488.923 197.037 482.516 200.888L396.513 252.768C390.592 256.33 387 262.683 387 269.42V373.086C387 379.92 390.592 386.176 396.513 389.738L482.516 441.619C485.72 443.544 494.165 447.009 503.386 441.619L589.39 389.738C595.408 386.273 599 379.92 599 373.086V269.42Z" fill="#424242" fill-opacity="0.03"/>
    <path fill-rule="evenodd" clip-rule="evenodd" d="M821 269.42C821 262.586 817.408 256.33 811.487 252.768L725.386 200.888C718.98 197.037 710.923 197.037 704.516 200.888L618.513 252.768C612.592 256.33 609 262.683 609 269.42V373.086C609 379.92 612.592 386.176 618.513 389.738L704.516 441.619C707.72 443.544 716.165 447.009 725.386 441.619L811.39 389.738C817.408 386.273 821 379.92 821 373.086V269.42Z" fill="#424242" fill-opacity="0.03"/>
    <path fill-rule="evenodd" clip-rule="evenodd" d="M377 269.42C377 262.586 373.408 256.33 367.487 252.768L281.386 200.888C274.98 197.037 266.923 197.037 260.516 200.888L174.513 252.768C168.592 256.33 165 262.683 165 269.42V373.086C165 379.92 168.592 386.176 174.513 389.738L260.516 441.619C263.72 443.544 272.165 447.009 281.386 441.619L367.39 389.738C373.408 386.273 377 379.92 377 373.086V269.42Z" fill="#424242" fill-opacity="0.03"/>
    <path fill-rule="evenodd" clip-rule="evenodd" d="M932 467.42C932 460.586 928.408 454.33 922.487 450.768L836.386 398.888C829.98 395.037 821.923 395.037 815.516 398.888L729.513 450.768C723.592 454.33 720 460.683 720 467.42V571.086C720 577.92 723.592 584.176 729.513 587.738L815.516 639.619C818.72 641.544 827.165 645.009 836.386 639.619L922.39 587.738C928.408 584.273 932 577.92 932 571.086V467.42Z" fill="#424242" fill-opacity="0.03"/>
    <path fill-rule="evenodd" clip-rule="evenodd" d="M1376 467.42C1376 460.586 1372.41 454.33 1366.49 450.768L1280.39 398.888C1273.98 395.037 1265.92 395.037 1259.52 398.888L1173.51 450.768C1167.59 454.33 1164 460.683 1164 467.42V571.086C1164 577.92 1167.59 584.176 1173.51 587.738L1259.52 639.619C1262.72 641.544 1271.16 645.009 1280.39 639.619L1366.39 587.738C1372.41 584.273 1376 577.92 1376 571.086V467.42Z" fill="#424242" fill-opacity="0.03"/>
    <path fill-rule="evenodd" clip-rule="evenodd" d="M266 467.42C266 460.586 262.408 454.33 256.487 450.768L170.386 398.888C163.98 395.037 155.923 395.037 149.516 398.888L63.5128 450.768C57.5916 454.33 54 460.683 54 467.42V571.086C54 577.92 57.5916 584.176 63.5128 587.738L149.516 639.619C152.72 641.544 161.165 645.009 170.386 639.619L256.39 587.738C262.408 584.273 266 577.92 266 571.086V467.42Z" fill="#424242" fill-opacity="0.03"/>
    <path fill-rule="evenodd" clip-rule="evenodd" d="M1043 665.42C1043 658.586 1039.41 652.33 1033.49 648.768L947.386 596.888C940.98 593.037 932.923 593.037 926.516 596.888L840.513 648.768C834.592 652.33 831 658.683 831 665.42V769.086C831 775.92 834.592 782.176 840.513 785.738L926.516 837.619C929.72 839.544 938.165 843.009 947.386 837.619L1033.39 785.738C1039.41 782.273 1043 775.92 1043 769.086V665.42Z" fill="#424242" fill-opacity="0.03"/>
    <path fill-rule="evenodd" clip-rule="evenodd" d="M1265 665.42C1265 658.586 1261.41 652.33 1255.49 648.768L1169.39 596.888C1162.98 593.037 1154.92 593.037 1148.52 596.888L1062.51 648.768C1056.59 652.33 1053 658.683 1053 665.42V769.086C1053 775.92 1056.59 782.176 1062.51 785.738L1148.52 837.619C1151.72 839.544 1160.16 843.009 1169.39 837.619L1255.39 785.738C1261.41 782.273 1265 775.92 1265 769.086V665.42Z" fill="#424242" fill-opacity="0.03"/>
    <path fill-rule="evenodd" clip-rule="evenodd" d="M155 665.42C155 658.586 151.408 652.33 145.487 648.768L59.3864 596.888C52.9799 593.037 44.9231 593.037 38.5165 596.888L-47.4872 648.768C-53.4084 652.33 -57 658.683 -57 665.42V769.086C-57 775.92 -53.4084 782.176 -47.4872 785.738L38.5165 837.619C41.7198 839.544 50.1648 843.009 59.3864 837.619L145.39 785.738C151.408 782.273 155 775.92 155 769.086V665.42Z" fill="#424242" fill-opacity="0.03"/>
    <path fill-rule="evenodd" clip-rule="evenodd" d="M599 665.42C599 658.586 595.408 652.33 589.487 648.768L503.386 596.888C496.98 593.037 488.923 593.037 482.516 596.888L396.513 648.768C390.592 652.33 387 658.683 387 665.42V769.086C387 775.92 390.592 782.176 396.513 785.738L482.516 837.619C485.72 839.544 494.165 843.009 503.386 837.619L589.39 785.738C595.408 782.273 599 775.92 599 769.086V665.42Z" fill="#424242" fill-opacity="0.03"/>
    <path fill-rule="evenodd" clip-rule="evenodd" d="M932 863.42C932 856.586 928.408 850.33 922.487 846.768L836.386 794.888C829.98 791.037 821.923 791.037 815.516 794.888L729.513 846.768C723.592 850.33 720 856.683 720 863.42V967.086C720 973.92 723.592 980.176 729.513 983.738L815.516 1035.62C818.72 1037.54 827.165 1041.01 836.386 1035.62L922.39 983.738C928.408 980.273 932 973.92 932 967.086V863.42Z" fill="#424242" fill-opacity="0.03"/>
    <path fill-rule="evenodd" clip-rule="evenodd" d="M1376 863.42C1376 856.586 1372.41 850.33 1366.49 846.768L1280.39 794.888C1273.98 791.037 1265.92 791.037 1259.52 794.888L1173.51 846.768C1167.59 850.33 1164 856.683 1164 863.42V967.086C1164 973.92 1167.59 980.176 1173.51 983.738L1259.52 1035.62C1262.72 1037.54 1271.16 1041.01 1280.39 1035.62L1366.39 983.738C1372.41 980.273 1376 973.92 1376 967.086V863.42Z" fill="#424242" fill-opacity="0.03"/>
    <path fill-rule="evenodd" clip-rule="evenodd" d="M44 863.42C44 856.586 40.4084 850.33 34.4872 846.768L-51.6136 794.888C-58.0201 791.037 -66.0769 791.037 -72.4835 794.888L-158.487 846.768C-164.408 850.33 -168 856.683 -168 863.42V967.086C-168 973.92 -164.408 980.176 -158.487 983.738L-72.4835 1035.62C-69.2802 1037.54 -60.8352 1041.01 -51.6136 1035.62L34.3901 983.738C40.4084 980.273 44 973.92 44 967.086V863.42Z" fill="#424242" fill-opacity="0.03"/>
    <path fill-rule="evenodd" clip-rule="evenodd" d="M488 863.42C488 856.586 484.408 850.33 478.487 846.768L392.386 794.888C385.98 791.037 377.923 791.037 371.516 794.888L285.513 846.768C279.592 850.33 276 856.683 276 863.42V967.086C276 973.92 279.592 980.176 285.513 983.738L371.516 1035.62C374.72 1037.54 383.165 1041.01 392.386 1035.62L478.39 983.738C484.408 980.273 488 973.92 488 967.086V863.42Z" fill="#424242" fill-opacity="0.03"/>
    <path fill-rule="evenodd" clip-rule="evenodd" d="M266 863.42C266 856.586 262.408 850.33 256.487 846.768L170.386 794.888C163.98 791.037 155.923 791.037 149.516 794.888L63.5128 846.768C57.5916 850.33 54 856.683 54 863.42V967.086C54 973.92 57.5916 980.176 63.5128 983.738L149.516 1035.62C152.72 1037.54 161.165 1041.01 170.386 1035.62L256.39 983.738C262.408 980.273 266 973.92 266 967.086V863.42Z" fill="#424242" fill-opacity="0.03"/>
    <path fill-rule="evenodd" clip-rule="evenodd" d="M1598 863.42C1598 856.586 1594.41 850.33 1588.49 846.768L1502.39 794.888C1495.98 791.037 1487.92 791.037 1481.52 794.888L1395.51 846.768C1389.59 850.33 1386 856.683 1386 863.42V967.086C1386 973.92 1389.59 980.176 1395.51 983.738L1481.52 1035.62C1484.72 1037.54 1493.16 1041.01 1502.39 1035.62L1588.39 983.738C1594.41 980.273 1598 973.92 1598 967.086V863.42Z" fill="#424242" fill-opacity="0.03"/>
    <path fill-rule="evenodd" clip-rule="evenodd" d="M1043 1061.42C1043 1054.59 1039.41 1048.33 1033.49 1044.77L947.386 992.888C940.98 989.037 932.923 989.037 926.516 992.888L840.513 1044.77C834.592 1048.33 831 1054.68 831 1061.42V1165.09C831 1171.92 834.592 1178.18 840.513 1181.74L926.516 1233.62C929.72 1235.54 938.165 1239.01 947.386 1233.62L1033.39 1181.74C1039.41 1178.27 1043 1171.92 1043 1165.09V1061.42Z" fill="#424242" fill-opacity="0.03"/>
    <path fill-rule="evenodd" clip-rule="evenodd" d="M1265 1061.42C1265 1054.59 1261.41 1048.33 1255.49 1044.77L1169.39 992.888C1162.98 989.037 1154.92 989.037 1148.52 992.888L1062.51 1044.77C1056.59 1048.33 1053 1054.68 1053 1061.42V1165.09C1053 1171.92 1056.59 1178.18 1062.51 1181.74L1148.52 1233.62C1151.72 1235.54 1160.16 1239.01 1169.39 1233.62L1255.39 1181.74C1261.41 1178.27 1265 1171.92 1265 1165.09V1061.42Z" fill="#424242" fill-opacity="0.03"/>
    <path fill-rule="evenodd" clip-rule="evenodd" d="M1487 1061.42C1487 1054.59 1483.41 1048.33 1477.49 1044.77L1391.39 992.888C1384.98 989.037 1376.92 989.037 1370.52 992.888L1284.51 1044.77C1278.59 1048.33 1275 1054.68 1275 1061.42V1165.09C1275 1171.92 1278.59 1178.18 1284.51 1181.74L1370.52 1233.62C1373.72 1235.54 1382.16 1239.01 1391.39 1233.62L1477.39 1181.74C1483.41 1178.27 1487 1171.92 1487 1165.09V1061.42Z" fill="#424242" fill-opacity="0.03"/>
    <path fill-rule="evenodd" clip-rule="evenodd" d="M599 1061.42C599 1054.59 595.408 1048.33 589.487 1044.77L503.386 992.888C496.98 989.037 488.923 989.037 482.516 992.888L396.513 1044.77C390.592 1048.33 387 1054.68 387 1061.42V1165.09C387 1171.92 390.592 1178.18 396.513 1181.74L482.516 1233.62C485.72 1235.54 494.165 1239.01 503.386 1233.62L589.39 1181.74C595.408 1178.27 599 1171.92 599 1165.09V1061.42Z" fill="#424242" fill-opacity="0.03"/>
    <path fill-rule="evenodd" clip-rule="evenodd" d="M821 1061.42C821 1054.59 817.408 1048.33 811.487 1044.77L725.386 992.888C718.98 989.037 710.923 989.037 704.516 992.888L618.513 1044.77C612.592 1048.33 609 1054.68 609 1061.42V1165.09C609 1171.92 612.592 1178.18 618.513 1181.74L704.516 1233.62C707.72 1235.54 716.165 1239.01 725.386 1233.62L811.39 1181.74C817.408 1178.27 821 1171.92 821 1165.09V1061.42Z" fill="#424242" fill-opacity="0.03"/>
    <path fill-rule="evenodd" clip-rule="evenodd" d="M377 1061.42C377 1054.59 373.408 1048.33 367.487 1044.77L281.386 992.888C274.98 989.037 266.923 989.037 260.516 992.888L174.513 1044.77C168.592 1048.33 165 1054.68 165 1061.42V1165.09C165 1171.92 168.592 1178.18 174.513 1181.74L260.516 1233.62C263.72 1235.54 272.165 1239.01 281.386 1233.62L367.39 1181.74C373.408 1178.27 377 1171.92 377 1165.09V1061.42Z" fill="#424242" fill-opacity="0.03"/>
    <path fill-rule="evenodd" clip-rule="evenodd" d="M932 1259.42C932 1252.59 928.408 1246.33 922.487 1242.77L836.386 1190.89C829.98 1187.04 821.923 1187.04 815.516 1190.89L729.513 1242.77C723.592 1246.33 720 1252.68 720 1259.42V1363.09C720 1369.92 723.592 1376.18 729.513 1379.74L815.516 1431.62C818.72 1433.54 827.165 1437.01 836.386 1431.62L922.39 1379.74C928.408 1376.27 932 1369.92 932 1363.09V1259.42Z" fill="#424242" fill-opacity="0.03"/>
    <path fill-rule="evenodd" clip-rule="evenodd" d="M1376 1259.42C1376 1252.59 1372.41 1246.33 1366.49 1242.77L1280.39 1190.89C1273.98 1187.04 1265.92 1187.04 1259.52 1190.89L1173.51 1242.77C1167.59 1246.33 1164 1252.68 1164 1259.42V1363.09C1164 1369.92 1167.59 1376.18 1173.51 1379.74L1259.52 1431.62C1262.72 1433.54 1271.16 1437.01 1280.39 1431.62L1366.39 1379.74C1372.41 1376.27 1376 1369.92 1376 1363.09V1259.42Z" fill="#424242" fill-opacity="0.03"/>
    <path fill-rule="evenodd" clip-rule="evenodd" d="M266 1259.42C266 1252.59 262.408 1246.33 256.487 1242.77L170.386 1190.89C163.98 1187.04 155.923 1187.04 149.516 1190.89L63.5128 1242.77C57.5916 1246.33 54 1252.68 54 1259.42V1363.09C54 1369.92 57.5916 1376.18 63.5128 1379.74L149.516 1431.62C152.72 1433.54 161.165 1437.01 170.386 1431.62L256.39 1379.74C262.408 1376.27 266 1369.92 266 1363.09V1259.42Z" fill="#424242" fill-opacity="0.03"/>
    <path fill-rule="evenodd" clip-rule="evenodd" d="M1043 1457.42C1043 1450.59 1039.41 1444.33 1033.49 1440.77L947.386 1388.89C940.98 1385.04 932.923 1385.04 926.516 1388.89L840.513 1440.77C834.592 1444.33 831 1450.68 831 1457.42V1561.09C831 1567.92 834.592 1574.18 840.513 1577.74L926.516 1629.62C929.72 1631.54 938.165 1635.01 947.386 1629.62L1033.39 1577.74C1039.41 1574.27 1043 1567.92 1043 1561.09V1457.42Z" fill="#424242" fill-opacity="0.03"/>
    <path fill-rule="evenodd" clip-rule="evenodd" d="M1265 1457.42C1265 1450.59 1261.41 1444.33 1255.49 1440.77L1169.39 1388.89C1162.98 1385.04 1154.92 1385.04 1148.52 1388.89L1062.51 1440.77C1056.59 1444.33 1053 1450.68 1053 1457.42V1561.09C1053 1567.92 1056.59 1574.18 1062.51 1577.74L1148.52 1629.62C1151.72 1631.54 1160.16 1635.01 1169.39 1629.62L1255.39 1577.74C1261.41 1574.27 1265 1567.92 1265 1561.09V1457.42Z" fill="#424242" fill-opacity="0.03"/>
    <path fill-rule="evenodd" clip-rule="evenodd" d="M155 1457.42C155 1450.59 151.408 1444.33 145.487 1440.77L59.3864 1388.89C52.9799 1385.04 44.9231 1385.04 38.5165 1388.89L-47.4872 1440.77C-53.4084 1444.33 -57 1450.68 -57 1457.42V1561.09C-57 1567.92 -53.4084 1574.18 -47.4872 1577.74L38.5165 1629.62C41.7198 1631.54 50.1648 1635.01 59.3864 1629.62L145.39 1577.74C151.408 1574.27 155 1567.92 155 1561.09V1457.42Z" fill="#424242" fill-opacity="0.03"/>
    <path fill-rule="evenodd" clip-rule="evenodd" d="M599 1457.42C599 1450.59 595.408 1444.33 589.487 1440.77L503.386 1388.89C496.98 1385.04 488.923 1385.04 482.516 1388.89L396.513 1440.77C390.592 1444.33 387 1450.68 387 1457.42V1561.09C387 1567.92 390.592 1574.18 396.513 1577.74L482.516 1629.62C485.72 1631.54 494.165 1635.01 503.386 1629.62L589.39 1577.74C595.408 1574.27 599 1567.92 599 1561.09V1457.42Z" fill="#424242" fill-opacity="0.03"/>
    <path fill-rule="evenodd" clip-rule="evenodd" d="M932 1655.42C932 1648.59 928.408 1642.33 922.487 1638.77L836.386 1586.89C829.98 1583.04 821.923 1583.04 815.516 1586.89L729.513 1638.77C723.592 1642.33 720 1648.68 720 1655.42V1759.09C720 1765.92 723.592 1772.18 729.513 1775.74L815.516 1827.62C818.72 1829.54 827.165 1833.01 836.386 1827.62L922.39 1775.74C928.408 1772.27 932 1765.92 932 1759.09V1655.42Z" fill="#424242" fill-opacity="0.03"/>
    <path fill-rule="evenodd" clip-rule="evenodd" d="M1376 1655.42C1376 1648.59 1372.41 1642.33 1366.49 1638.77L1280.39 1586.89C1273.98 1583.04 1265.92 1583.04 1259.52 1586.89L1173.51 1638.77C1167.59 1642.33 1164 1648.68 1164 1655.42V1759.09C1164 1765.92 1167.59 1772.18 1173.51 1775.74L1259.52 1827.62C1262.72 1829.54 1271.16 1833.01 1280.39 1827.62L1366.39 1775.74C1372.41 1772.27 1376 1765.92 1376 1759.09V1655.42Z" fill="#424242" fill-opacity="0.03"/>
    <path fill-rule="evenodd" clip-rule="evenodd" d="M44 1655.42C44 1648.59 40.4084 1642.33 34.4872 1638.77L-51.6136 1586.89C-58.0201 1583.04 -66.0769 1583.04 -72.4835 1586.89L-158.487 1638.77C-164.408 1642.33 -168 1648.68 -168 1655.42V1759.09C-168 1765.92 -164.408 1772.18 -158.487 1775.74L-72.4835 1827.62C-69.2802 1829.54 -60.8352 1833.01 -51.6136 1827.62L34.3901 1775.74C40.4084 1772.27 44 1765.92 44 1759.09V1655.42Z" fill="#424242" fill-opacity="0.03"/>
    <path fill-rule="evenodd" clip-rule="evenodd" d="M488 1655.42C488 1648.59 484.408 1642.33 478.487 1638.77L392.386 1586.89C385.98 1583.04 377.923 1583.04 371.516 1586.89L285.513 1638.77C279.592 1642.33 276 1648.68 276 1655.42V1759.09C276 1765.92 279.592 1772.18 285.513 1775.74L371.516 1827.62C374.72 1829.54 383.165 1833.01 392.386 1827.62L478.39 1775.74C484.408 1772.27 488 1765.92 488 1759.09V1655.42Z" fill="#424242" fill-opacity="0.03"/>
    <path fill-rule="evenodd" clip-rule="evenodd" d="M266 1655.42C266 1648.59 262.408 1642.33 256.487 1638.77L170.386 1586.89C163.98 1583.04 155.923 1583.04 149.516 1586.89L63.5128 1638.77C57.5916 1642.33 54 1648.68 54 1655.42V1759.09C54 1765.92 57.5916 1772.18 63.5128 1775.74L149.516 1827.62C152.72 1829.54 161.165 1833.01 170.386 1827.62L256.39 1775.74C262.408 1772.27 266 1765.92 266 1759.09V1655.42Z" fill="#424242" fill-opacity="0.03"/>
    <path fill-rule="evenodd" clip-rule="evenodd" d="M1598 1655.42C1598 1648.59 1594.41 1642.33 1588.49 1638.77L1502.39 1586.89C1495.98 1583.04 1487.92 1583.04 1481.52 1586.89L1395.51 1638.77C1389.59 1642.33 1386 1648.68 1386 1655.42V1759.09C1386 1765.92 1389.59 1772.18 1395.51 1775.74L1481.52 1827.62C1484.72 1829.54 1493.16 1833.01 1502.39 1827.62L1588.39 1775.74C1594.41 1772.27 1598 1765.92 1598 1759.09V1655.42Z" fill="#424242" fill-opacity="0.03"/>
    <path fill-rule="evenodd" clip-rule="evenodd" d="M1043 1853.42C1043 1846.59 1039.41 1840.33 1033.49 1836.77L947.386 1784.89C940.98 1781.04 932.923 1781.04 926.516 1784.89L840.513 1836.77C834.592 1840.33 831 1846.68 831 1853.42V1957.09C831 1963.92 834.592 1970.18 840.513 1973.74L926.516 2025.62C929.72 2027.54 938.165 2031.01 947.386 2025.62L1033.39 1973.74C1039.41 1970.27 1043 1963.92 1043 1957.09V1853.42Z" fill="#424242" fill-opacity="0.03"/>
    <path fill-rule="evenodd" clip-rule="evenodd" d="M1265 1853.42C1265 1846.59 1261.41 1840.33 1255.49 1836.77L1169.39 1784.89C1162.98 1781.04 1154.92 1781.04 1148.52 1784.89L1062.51 1836.77C1056.59 1840.33 1053 1846.68 1053 1853.42V1957.09C1053 1963.92 1056.59 1970.18 1062.51 1973.74L1148.52 2025.62C1151.72 2027.54 1160.16 2031.01 1169.39 2025.62L1255.39 1973.74C1261.41 1970.27 1265 1963.92 1265 1957.09V1853.42Z" fill="#424242" fill-opacity="0.03"/>
    <path fill-rule="evenodd" clip-rule="evenodd" d="M1487 1853.42C1487 1846.59 1483.41 1840.33 1477.49 1836.77L1391.39 1784.89C1384.98 1781.04 1376.92 1781.04 1370.52 1784.89L1284.51 1836.77C1278.59 1840.33 1275 1846.68 1275 1853.42V1957.09C1275 1963.92 1278.59 1970.18 1284.51 1973.74L1370.52 2025.62C1373.72 2027.54 1382.16 2031.01 1391.39 2025.62L1477.39 1973.74C1483.41 1970.27 1487 1963.92 1487 1957.09V1853.42Z" fill="#424242" fill-opacity="0.03"/>
    <path fill-rule="evenodd" clip-rule="evenodd" d="M599 1853.42C599 1846.59 595.408 1840.33 589.487 1836.77L503.386 1784.89C496.98 1781.04 488.923 1781.04 482.516 1784.89L396.513 1836.77C390.592 1840.33 387 1846.68 387 1853.42V1957.09C387 1963.92 390.592 1970.18 396.513 1973.74L482.516 2025.62C485.72 2027.54 494.165 2031.01 503.386 2025.62L589.39 1973.74C595.408 1970.27 599 1963.92 599 1957.09V1853.42Z" fill="#424242" fill-opacity="0.03"/>
    <path fill-rule="evenodd" clip-rule="evenodd" d="M821 1853.42C821 1846.59 817.408 1840.33 811.487 1836.77L725.386 1784.89C718.98 1781.04 710.923 1781.04 704.516 1784.89L618.513 1836.77C612.592 1840.33 609 1846.68 609 1853.42V1957.09C609 1963.92 612.592 1970.18 618.513 1973.74L704.516 2025.62C707.72 2027.54 716.165 2031.01 725.386 2025.62L811.39 1973.74C817.408 1970.27 821 1963.92 821 1957.09V1853.42Z" fill="#424242" fill-opacity="0.03"/>
    <path fill-rule="evenodd" clip-rule="evenodd" d="M377 1853.42C377 1846.59 373.408 1840.33 367.487 1836.77L281.386 1784.89C274.98 1781.04 266.923 1781.04 260.516 1784.89L174.513 1836.77C168.592 1840.33 165 1846.68 165 1853.42V1957.09C165 1963.92 168.592 1970.18 174.513 1973.74L260.516 2025.62C263.72 2027.54 272.165 2031.01 281.386 2025.62L367.39 1973.74C373.408 1970.27 377 1963.92 377 1957.09V1853.42Z" fill="#424242" fill-opacity="0.03"/>
    <path fill-rule="evenodd" clip-rule="evenodd" d="M932 2051.42C932 2044.59 928.408 2038.33 922.487 2034.77L836.386 1982.89C829.98 1979.04 821.923 1979.04 815.516 1982.89L729.513 2034.77C723.592 2038.33 720 2044.68 720 2051.42V2155.09C720 2161.92 723.592 2168.18 729.513 2171.74L815.516 2223.62C818.72 2225.54 827.165 2229.01 836.386 2223.62L922.39 2171.74C928.408 2168.27 932 2161.92 932 2155.09V2051.42Z" fill="#424242" fill-opacity="0.03"/>
    <path fill-rule="evenodd" clip-rule="evenodd" d="M1376 2051.42C1376 2044.59 1372.41 2038.33 1366.49 2034.77L1280.39 1982.89C1273.98 1979.04 1265.92 1979.04 1259.52 1982.89L1173.51 2034.77C1167.59 2038.33 1164 2044.68 1164 2051.42V2155.09C1164 2161.92 1167.59 2168.18 1173.51 2171.74L1259.52 2223.62C1262.72 2225.54 1271.16 2229.01 1280.39 2223.62L1366.39 2171.74C1372.41 2168.27 1376 2161.92 1376 2155.09V2051.42Z" fill="#424242" fill-opacity="0.03"/>
    <path fill-rule="evenodd" clip-rule="evenodd" d="M266 2051.42C266 2044.59 262.408 2038.33 256.487 2034.77L170.386 1982.89C163.98 1979.04 155.923 1979.04 149.516 1982.89L63.5128 2034.77C57.5916 2038.33 54 2044.68 54 2051.42V2155.09C54 2161.92 57.5916 2168.18 63.5128 2171.74L149.516 2223.62C152.72 2225.54 161.165 2229.01 170.386 2223.62L256.39 2171.74C262.408 2168.27 266 2161.92 266 2155.09V2051.42Z" fill="#424242" fill-opacity="0.03"/>
    <path fill-rule="evenodd" clip-rule="evenodd" d="M1043 2249.42C1043 2242.59 1039.41 2236.33 1033.49 2232.77L947.386 2180.89C940.98 2177.04 932.923 2177.04 926.516 2180.89L840.513 2232.77C834.592 2236.33 831 2242.68 831 2249.42V2353.09C831 2359.92 834.592 2366.18 840.513 2369.74L926.516 2421.62C929.72 2423.54 938.165 2427.01 947.386 2421.62L1033.39 2369.74C1039.41 2366.27 1043 2359.92 1043 2353.09V2249.42Z" fill="#424242" fill-opacity="0.03"/>
    <path fill-rule="evenodd" clip-rule="evenodd" d="M1265 2249.42C1265 2242.59 1261.41 2236.33 1255.49 2232.77L1169.39 2180.89C1162.98 2177.04 1154.92 2177.04 1148.52 2180.89L1062.51 2232.77C1056.59 2236.33 1053 2242.68 1053 2249.42V2353.09C1053 2359.92 1056.59 2366.18 1062.51 2369.74L1148.52 2421.62C1151.72 2423.54 1160.16 2427.01 1169.39 2421.62L1255.39 2369.74C1261.41 2366.27 1265 2359.92 1265 2353.09V2249.42Z" fill="#424242" fill-opacity="0.03"/>
    <path fill-rule="evenodd" clip-rule="evenodd" d="M155 2249.42C155 2242.59 151.408 2236.33 145.487 2232.77L59.3864 2180.89C52.9799 2177.04 44.9231 2177.04 38.5165 2180.89L-47.4872 2232.77C-53.4084 2236.33 -57 2242.68 -57 2249.42V2353.09C-57 2359.92 -53.4084 2366.18 -47.4872 2369.74L38.5165 2421.62C41.7198 2423.54 50.1648 2427.01 59.3864 2421.62L145.39 2369.74C151.408 2366.27 155 2359.92 155 2353.09V2249.42Z" fill="#424242" fill-opacity="0.03"/>
    <path fill-rule="evenodd" clip-rule="evenodd" d="M599 2249.42C599 2242.59 595.408 2236.33 589.487 2232.77L503.386 2180.89C496.98 2177.04 488.923 2177.04 482.516 2180.89L396.513 2232.77C390.592 2236.33 387 2242.68 387 2249.42V2353.09C387 2359.92 390.592 2366.18 396.513 2369.74L482.516 2421.62C485.72 2423.54 494.165 2427.01 503.386 2421.62L589.39 2369.74C595.408 2366.27 599 2359.92 599 2353.09V2249.42Z" fill="#424242" fill-opacity="0.03"/>
</svg>
