<svg width="1440" height="1039" viewBox="0 0 1440 1039" fill="none" xmlns="http://www.w3.org/2000/svg">
    <path fill-rule="evenodd" clip-rule="evenodd" d="M155 269.42C155 262.586 151.408 256.33 145.487 252.768L59.3864 200.888C52.9799 197.037 44.9231 197.037 38.5165 200.888L-47.4872 252.768C-53.4084 256.33 -57 262.683 -57 269.42V373.086C-57 379.92 -53.4084 386.176 -47.4872 389.738L38.5165 441.619C41.7198 443.544 50.1648 447.009 59.3864 441.619L145.39 389.738C151.408 386.273 155 379.92 155 373.086V269.42Z" fill="white" fill-opacity="0.1"/>
    <path fill-rule="evenodd" clip-rule="evenodd" d="M266 71.4204C266 64.5864 262.408 58.3299 256.487 54.7685L170.386 2.88762C163.98 -0.962539 155.923 -0.962539 149.516 2.88762L63.5128 54.7685C57.5916 58.3299 54 64.6826 54 71.4204V175.086C54 181.92 57.5916 188.176 63.5128 191.738L149.516 243.619C152.72 245.544 161.165 249.009 170.386 243.619L256.39 191.738C262.408 188.273 266 181.92 266 175.086V71.4204Z" fill="white" fill-opacity="0.1"/>
    <path fill-rule="evenodd" clip-rule="evenodd" d="M488 71.4204C488 64.5864 484.408 58.3299 478.487 54.7685L392.386 2.88762C385.98 -0.962539 377.923 -0.962539 371.516 2.88762L285.513 54.7685C279.592 58.3299 276 64.6826 276 71.4204V175.086C276 181.92 279.592 188.176 285.513 191.738L371.516 243.619C374.72 245.544 383.165 249.009 392.386 243.619L478.39 191.738C484.408 188.273 488 181.92 488 175.086V71.4204Z" fill="white" fill-opacity="0.1"/>
    <path fill-rule="evenodd" clip-rule="evenodd" d="M932 71.4204C932 64.5864 928.408 58.3299 922.487 54.7685L836.386 2.88762C829.98 -0.962539 821.923 -0.962539 815.516 2.88762L729.513 54.7685C723.592 58.3299 720 64.6826 720 71.4204V175.086C720 181.92 723.592 188.176 729.513 191.738L815.516 243.619C818.72 245.544 827.165 249.009 836.386 243.619L922.39 191.738C928.408 188.273 932 181.92 932 175.086V71.4204Z" fill="white" fill-opacity="0.1"/>
    <path fill-rule="evenodd" clip-rule="evenodd" d="M710 71.4204C710 64.5864 706.408 58.3299 700.487 54.7685L614.386 2.88762C607.98 -0.962539 599.923 -0.962539 593.516 2.88762L507.513 54.7685C501.592 58.3299 498 64.6826 498 71.4204V175.086C498 181.92 501.592 188.176 507.513 191.738L593.516 243.619C596.72 245.544 605.165 249.009 614.386 243.619L700.39 191.738C706.408 188.273 710 181.92 710 175.086V71.4204Z" fill="white" fill-opacity="0.1"/>
    <path fill-rule="evenodd" clip-rule="evenodd" d="M1154 71.4204C1154 64.5864 1150.41 58.3299 1144.49 54.7685L1058.39 2.88762C1051.98 -0.962539 1043.92 -0.962539 1037.52 2.88762L951.513 54.7685C945.592 58.3299 942 64.6826 942 71.4204V175.086C942 181.92 945.592 188.176 951.513 191.738L1037.52 243.619C1040.72 245.544 1049.16 249.009 1058.39 243.619L1144.39 191.738C1150.41 188.273 1154 181.92 1154 175.086V71.4204Z" fill="white" fill-opacity="0.1"/>
    <path fill-rule="evenodd" clip-rule="evenodd" d="M266 467.42C266 460.586 262.408 454.33 256.487 450.768L170.386 398.888C163.98 395.037 155.923 395.037 149.516 398.888L63.5128 450.768C57.5916 454.33 54 460.683 54 467.42V571.086C54 577.92 57.5916 584.176 63.5128 587.738L149.516 639.619C152.72 641.544 161.165 645.009 170.386 639.619L256.39 587.738C262.408 584.273 266 577.92 266 571.086V467.42Z" fill="white" fill-opacity="0.1"/>
    <path fill-rule="evenodd" clip-rule="evenodd" d="M155 665.42C155 658.586 151.408 652.33 145.487 648.768L59.3864 596.888C52.9799 593.037 44.9231 593.037 38.5165 596.888L-47.4872 648.768C-53.4084 652.33 -57 658.683 -57 665.42V769.086C-57 775.92 -53.4084 782.176 -47.4872 785.738L38.5165 837.619C41.7198 839.544 50.1648 843.009 59.3864 837.619L145.39 785.738C151.408 782.273 155 775.92 155 769.086V665.42Z" fill="white" fill-opacity="0.1"/>
    <path fill-rule="evenodd" clip-rule="evenodd" d="M488 467.42C488 460.586 484.408 454.33 478.487 450.768L392.386 398.888C385.98 395.037 377.923 395.037 371.516 398.888L285.513 450.768C279.592 454.33 276 460.683 276 467.42V571.086C276 577.92 279.592 584.176 285.513 587.738L371.516 639.619C374.72 641.544 383.165 645.009 392.386 639.619L478.39 587.738C484.408 584.273 488 577.92 488 571.086V467.42Z" fill="white" fill-opacity="0.1"/>
    <path fill-rule="evenodd" clip-rule="evenodd" d="M710 467.42C710 460.586 706.408 454.33 700.487 450.768L614.386 398.888C607.98 395.037 599.923 395.037 593.516 398.888L507.513 450.768C501.592 454.33 498 460.683 498 467.42V571.086C498 577.92 501.592 584.176 507.513 587.738L593.516 639.619C596.72 641.544 605.165 645.009 614.386 639.619L700.39 587.738C706.408 584.273 710 577.92 710 571.086V467.42Z" fill="white" fill-opacity="0.1"/>
    <path fill-rule="evenodd" clip-rule="evenodd" d="M932 467.42C932 460.586 928.408 454.33 922.487 450.768L836.386 398.888C829.98 395.037 821.923 395.037 815.516 398.888L729.513 450.768C723.592 454.33 720 460.683 720 467.42V571.086C720 577.92 723.592 584.176 729.513 587.738L815.516 639.619C818.72 641.544 827.165 645.009 836.386 639.619L922.39 587.738C928.408 584.273 932 577.92 932 571.086V467.42Z" fill="white" fill-opacity="0.1"/>
    <path fill-rule="evenodd" clip-rule="evenodd" d="M1376 467.42C1376 460.586 1372.41 454.33 1366.49 450.768L1280.39 398.888C1273.98 395.037 1265.92 395.037 1259.52 398.888L1173.51 450.768C1167.59 454.33 1164 460.683 1164 467.42V571.086C1164 577.92 1167.59 584.176 1173.51 587.738L1259.52 639.619C1262.72 641.544 1271.16 645.009 1280.39 639.619L1366.39 587.738C1372.41 584.273 1376 577.92 1376 571.086V467.42Z" fill="white" fill-opacity="0.1"/>
    <path fill-rule="evenodd" clip-rule="evenodd" d="M1598 467.42C1598 460.586 1594.41 454.33 1588.49 450.768L1502.39 398.888C1495.98 395.037 1487.92 395.037 1481.52 398.888L1395.51 450.768C1389.59 454.33 1386 460.683 1386 467.42V571.086C1386 577.92 1389.59 584.176 1395.51 587.738L1481.52 639.619C1484.72 641.544 1493.16 645.009 1502.39 639.619L1588.39 587.738C1594.41 584.273 1598 577.92 1598 571.086V467.42Z" fill="white" fill-opacity="0.1"/>
    <path fill-rule="evenodd" clip-rule="evenodd" d="M599 665.42C599 658.586 595.408 652.33 589.487 648.768L503.386 596.888C496.98 593.037 488.923 593.037 482.516 596.888L396.513 648.768C390.592 652.33 387 658.683 387 665.42V769.086C387 775.92 390.592 782.176 396.513 785.738L482.516 837.619C485.72 839.544 494.165 843.009 503.386 837.619L589.39 785.738C595.408 782.273 599 775.92 599 769.086V665.42Z" fill="white" fill-opacity="0.1"/>
    <path fill-rule="evenodd" clip-rule="evenodd" d="M1265 665.42C1265 658.586 1261.41 652.33 1255.49 648.768L1169.39 596.888C1162.98 593.037 1154.92 593.037 1148.52 596.888L1062.51 648.768C1056.59 652.33 1053 658.683 1053 665.42V769.086C1053 775.92 1056.59 782.176 1062.51 785.738L1148.52 837.619C1151.72 839.544 1160.16 843.009 1169.39 837.619L1255.39 785.738C1261.41 782.273 1265 775.92 1265 769.086V665.42Z" fill="white" fill-opacity="0.1"/>
    <path fill-rule="evenodd" clip-rule="evenodd" d="M1043 665.42C1043 658.586 1039.41 652.33 1033.49 648.768L947.386 596.888C940.98 593.037 932.923 593.037 926.516 596.888L840.513 648.768C834.592 652.33 831 658.683 831 665.42V769.086C831 775.92 834.592 782.176 840.513 785.738L926.516 837.619C929.72 839.544 938.165 843.009 947.386 837.619L1033.39 785.738C1039.41 782.273 1043 775.92 1043 769.086V665.42Z" fill="white" fill-opacity="0.1"/>
    <path fill-rule="evenodd" clip-rule="evenodd" d="M932 863.42C932 856.586 928.408 850.33 922.487 846.768L836.386 794.888C829.98 791.037 821.923 791.037 815.516 794.888L729.513 846.768C723.592 850.33 720 856.683 720 863.42V967.086C720 973.92 723.592 980.176 729.513 983.738L815.516 1035.62C818.72 1037.54 827.165 1041.01 836.386 1035.62L922.39 983.738C928.408 980.273 932 973.92 932 967.086V863.42Z" fill="white" fill-opacity="0.1"/>
    <path fill-rule="evenodd" clip-rule="evenodd" d="M1376 863.42C1376 856.586 1372.41 850.33 1366.49 846.768L1280.39 794.888C1273.98 791.037 1265.92 791.037 1259.52 794.888L1173.51 846.768C1167.59 850.33 1164 856.683 1164 863.42V967.086C1164 973.92 1167.59 980.176 1173.51 983.738L1259.52 1035.62C1262.72 1037.54 1271.16 1041.01 1280.39 1035.62L1366.39 983.738C1372.41 980.273 1376 973.92 1376 967.086V863.42Z" fill="white" fill-opacity="0.1"/>
    <path fill-rule="evenodd" clip-rule="evenodd" d="M1598 863.42C1598 856.586 1594.41 850.33 1588.49 846.768L1502.39 794.888C1495.98 791.037 1487.92 791.037 1481.52 794.888L1395.51 846.768C1389.59 850.33 1386 856.683 1386 863.42V967.086C1386 973.92 1389.59 980.176 1395.51 983.738L1481.52 1035.62C1484.72 1037.54 1493.16 1041.01 1502.39 1035.62L1588.39 983.738C1594.41 980.273 1598 973.92 1598 967.086V863.42Z" fill="white" fill-opacity="0.1"/>
    <path fill-rule="evenodd" clip-rule="evenodd" d="M44 863.42C44 856.586 40.4084 850.33 34.4872 846.768L-51.6136 794.888C-58.0201 791.037 -66.0769 791.037 -72.4835 794.888L-158.487 846.768C-164.408 850.33 -168 856.683 -168 863.42V967.086C-168 973.92 -164.408 980.176 -158.487 983.738L-72.4835 1035.62C-69.2802 1037.54 -60.8352 1041.01 -51.6136 1035.62L34.3901 983.738C40.4084 980.273 44 973.92 44 967.086V863.42Z" fill="white" fill-opacity="0.1"/>
    <path fill-rule="evenodd" clip-rule="evenodd" d="M488 863.42C488 856.586 484.408 850.33 478.487 846.768L392.386 794.888C385.98 791.037 377.923 791.037 371.516 794.888L285.513 846.768C279.592 850.33 276 856.683 276 863.42V967.086C276 973.92 279.592 980.176 285.513 983.738L371.516 1035.62C374.72 1037.54 383.165 1041.01 392.386 1035.62L478.39 983.738C484.408 980.273 488 973.92 488 967.086V863.42Z" fill="white" fill-opacity="0.1"/>
    <path fill-rule="evenodd" clip-rule="evenodd" d="M266 863.42C266 856.586 262.408 850.33 256.487 846.768L170.386 794.888C163.98 791.037 155.923 791.037 149.516 794.888L63.5128 846.768C57.5916 850.33 54 856.683 54 863.42V967.086C54 973.92 57.5916 980.176 63.5128 983.738L149.516 1035.62C152.72 1037.54 161.165 1041.01 170.386 1035.62L256.39 983.738C262.408 980.273 266 973.92 266 967.086V863.42Z" fill="white" fill-opacity="0.1"/>
    <path fill-rule="evenodd" clip-rule="evenodd" d="M377 269.42C377 262.586 373.408 256.33 367.487 252.768L281.386 200.888C274.98 197.037 266.923 197.037 260.516 200.888L174.513 252.768C168.592 256.33 165 262.683 165 269.42V373.086C165 379.92 168.592 386.176 174.513 389.738L260.516 441.619C263.72 443.544 272.165 447.009 281.386 441.619L367.39 389.738C373.408 386.273 377 379.92 377 373.086V269.42Z" fill="white" fill-opacity="0.1"/>
    <path fill-rule="evenodd" clip-rule="evenodd" d="M821 269.42C821 262.586 817.408 256.33 811.487 252.768L725.386 200.888C718.98 197.037 710.923 197.037 704.516 200.888L618.513 252.768C612.592 256.33 609 262.683 609 269.42V373.086C609 379.92 612.592 386.176 618.513 389.738L704.516 441.619C707.72 443.544 716.165 447.009 725.386 441.619L811.39 389.738C817.408 386.273 821 379.92 821 373.086V269.42Z" fill="white" fill-opacity="0.1"/>
    <path fill-rule="evenodd" clip-rule="evenodd" d="M1265 269.42C1265 262.586 1261.41 256.33 1255.49 252.768L1169.39 200.888C1162.98 197.037 1154.92 197.037 1148.52 200.888L1062.51 252.768C1056.59 256.33 1053 262.683 1053 269.42V373.086C1053 379.92 1056.59 386.176 1062.51 389.738L1148.52 441.619C1151.72 443.544 1160.16 447.009 1169.39 441.619L1255.39 389.738C1261.41 386.273 1265 379.92 1265 373.086V269.42Z" fill="white" fill-opacity="0.1"/>
    <path fill-rule="evenodd" clip-rule="evenodd" d="M1487 269.42C1487 262.586 1483.41 256.33 1477.49 252.768L1391.39 200.888C1384.98 197.037 1376.92 197.037 1370.52 200.888L1284.51 252.768C1278.59 256.33 1275 262.683 1275 269.42V373.086C1275 379.92 1278.59 386.176 1284.51 389.738L1370.52 441.619C1373.72 443.544 1382.16 447.009 1391.39 441.619L1477.39 389.738C1483.41 386.273 1487 379.92 1487 373.086V269.42Z" fill="white" fill-opacity="0.1"/>
</svg>
